<svg xmlns="http://www.w3.org/2000/svg" viewBox="0 0 560 320" width="560" height="320">
  <defs>
    <clipPath id="win-clip"><rect width="560" height="320" rx="12"/></clipPath>
    <filter id="sh"><feDropShadow dx="0" dy="4" stdDeviation="12" flood-color="#00000022"/></filter>
  </defs>
  <rect width="560" height="320" rx="12" fill="white" filter="url(#sh)" clip-path="url(#win-clip)"/>
  <!-- Chrome bar -->
  <rect width="560" height="36" fill="#1e2240" rx="12 12 0 0" clip-path="url(#win-clip)"/>
  <circle cx="18" cy="18" r="5.5" fill="#ff5f57"/>
  <circle cx="34" cy="18" r="5.5" fill="#febc2e"/>
  <circle cx="50" cy="18" r="5.5" fill="#28c840"/>
  <rect x="80" y="8" width="460" height="20" rx="6" fill="#ffffff18"/>
  <text x="280" y="22" font-family="system-ui,sans-serif" font-size="10" fill="#ffffff99" text-anchor="middle">app.strayde.com · Résultats</text>
  <!-- Content area -->
  <rect x="0" y="36" width="560" height="284" fill="#f5f7f9"/>
  <!-- Header bar -->
  <rect x="0" y="36" width="560" height="44" fill="white" stroke="#e5e7eb" stroke-width="0.5"/>
  <text x="18" y="64" font-family="system-ui,sans-serif" font-size="12" font-weight="700" fill="#1e2240" letter-spacing="0.5">RÉSULTATS</text>
  <!-- Import button -->
  <rect x="462" y="46" width="84" height="26" rx="6" fill="#c4d87d"/>
  <g fill="none" stroke="#231a3d" stroke-width="1.4" stroke-linecap="round" stroke-linejoin="round" transform="translate(470,52)">
    <path d="M3 7C3 5.3 4.3 4 6 4c.2 0 .4 0 .6.1C7 3.1 8.1 2.5 9.3 2.5c1.9 0 3.5 1.6 3.5 3.5v.3C14.2 6.7 15 7.7 15 9c0 1.5-1.2 2.7-2.7 2.7H2.7C1.2 11.7 0 10.5 0 9 0 8 .6 7.1 1.5 6.7"/>
    <line x1="7.5" y1="6.5" x2="7.5" y2="13.5"/>
    <polyline points="5,9 7.5,6.5 10,9"/>
  </g>
  <text x="490" y="63" font-family="system-ui,sans-serif" font-size="9" font-weight="700" fill="#231a3d" text-anchor="start">IMPORTER</text>
  <!-- Info box -->
  <rect x="10" y="88" width="540" height="30" rx="6" fill="#eff6ff" stroke="#bae6fd" stroke-width="1"/>
  <g fill="none" stroke="#3b82f6" stroke-width="1.4" stroke-linecap="round" stroke-linejoin="round" transform="translate(18,94)">
    <circle cx="8" cy="8" r="7.5"/>
    <line x1="8" y1="6" x2="8" y2="6"/>
    <line x1="8" y1="9" x2="8" y2="14"/>
  </g>
  <text x="36" y="101" font-family="system-ui,sans-serif" font-size="8.5" fill="#1d4ed8">Pour les épreuves relevant de la FFA, privilégiez le format </text>
  <text x="36" y="113" font-family="system-ui,sans-serif" font-size="8.5" fill="#1d4ed8"><tspan font-weight="700">Elogica</tspan><tspan> : normalisation des données (catégories, licences, PPS) et consentement RGPD intégrés.</tspan></text>
  <!-- Table header -->
  <rect x="10" y="126" width="540" height="28" rx="6 6 0 0" fill="#f9fafb" stroke="#e5e7eb" stroke-width="1"/>
  <text x="26" y="144" font-family="system-ui,sans-serif" font-size="9" font-weight="700" fill="#374151">Épreuve</text>
  <text x="178" y="144" font-family="system-ui,sans-serif" font-size="9" font-weight="700" fill="#374151">Statut</text>
  <text x="258" y="144" font-family="system-ui,sans-serif" font-size="9" font-weight="700" fill="#374151">Fichier</text>
  <text x="338" y="144" font-family="system-ui,sans-serif" font-size="9" font-weight="700" fill="#374151">Résultats</text>
  <text x="428" y="144" font-family="system-ui,sans-serif" font-size="9" font-weight="700" fill="#374151">Date d'import</text>
  <text x="524" y="144" font-family="system-ui,sans-serif" font-size="9" font-weight="700" fill="#374151" text-anchor="middle">Actions</text>
  <!-- Table body -->
  <rect x="10" y="154" width="540" height="76" fill="white" stroke="#e5e7eb" stroke-width="1" rx="0 0 6 6"/>
  <!-- Row 1 -->
  <text x="26" y="176" font-family="system-ui,sans-serif" font-size="10" fill="#1e2240">12 Km de Rouen</text>
  <text x="193" y="176" font-family="system-ui,sans-serif" font-size="11" fill="#d1d5db" text-anchor="middle">—</text>
  <text x="273" y="176" font-family="system-ui,sans-serif" font-size="11" fill="#d1d5db" text-anchor="middle">—</text>
  <text x="358" y="176" font-family="system-ui,sans-serif" font-size="11" fill="#d1d5db" text-anchor="middle">—</text>
  <text x="451" y="176" font-family="system-ui,sans-serif" font-size="11" fill="#d1d5db" text-anchor="middle">—</text>
  <rect x="506" y="163" width="28" height="26" rx="6" fill="#3b82f6"/>
  <g fill="none" stroke="white" stroke-width="1.5" stroke-linecap="round" stroke-linejoin="round" transform="translate(513,169)">
    <path d="M1 5C1 3.7 2 2.7 3.3 2.7c.1 0 .3 0 .4.1C4 2 4.8 1.5 5.7 1.5c1.4 0 2.6 1.1 2.6 2.6v.2C9.3 4.6 10 5.3 10 6.3c0 1.1-.9 2-2 2H1c-1.1 0-2-.9-2-2C-1 5.7-.5 5.1.1 4.8"/>
    <line x1="5.5" y1="4.8" x2="5.5" y2="10.5"/>
    <polyline points="3.5,7 5.5,4.8 7.5,7"/>
  </g>
  <line x1="10" y1="192" x2="550" y2="192" stroke="#f3f4f6" stroke-width="1"/>
  <!-- Row 2 -->
  <text x="26" y="214" font-family="system-ui,sans-serif" font-size="10" fill="#1e2240">20 Km de Rouen</text>
  <text x="193" y="214" font-family="system-ui,sans-serif" font-size="11" fill="#d1d5db" text-anchor="middle">—</text>
  <text x="273" y="214" font-family="system-ui,sans-serif" font-size="11" fill="#d1d5db" text-anchor="middle">—</text>
  <text x="358" y="214" font-family="system-ui,sans-serif" font-size="11" fill="#d1d5db" text-anchor="middle">—</text>
  <text x="451" y="214" font-family="system-ui,sans-serif" font-size="11" fill="#d1d5db" text-anchor="middle">—</text>
  <rect x="506" y="201" width="28" height="26" rx="6" fill="#3b82f6"/>
  <g fill="none" stroke="white" stroke-width="1.5" stroke-linecap="round" stroke-linejoin="round" transform="translate(513,207)">
    <path d="M1 5C1 3.7 2 2.7 3.3 2.7c.1 0 .3 0 .4.1C4 2 4.8 1.5 5.7 1.5c1.4 0 2.6 1.1 2.6 2.6v.2C9.3 4.6 10 5.3 10 6.3c0 1.1-.9 2-2 2H1c-1.1 0-2-.9-2-2C-1 5.7-.5 5.1.1 4.8"/>
    <line x1="5.5" y1="4.8" x2="5.5" y2="10.5"/>
    <polyline points="3.5,7 5.5,4.8 7.5,7"/>
  </g>
</svg>
